<svg width="1926" height="980" viewBox="0 0 1926 980" fill="none" xmlns="http://www.w3.org/2000/svg">
<path fill-rule="evenodd" clip-rule="evenodd" d="M3 877.058C597.289 951.477 1638.26 1018.89 1923 945.039V97.448C1424.39 32.8614 494.769 -37.0867 3 30.739V877.058Z" fill="white"/>
<path d="M3 877.058H0.5V879.264L2.68937 879.538L3 877.058ZM1923 945.039L1923.63 947.459L1925.5 946.974V945.039H1923ZM1923 97.448H1925.5V95.2509L1923.32 94.9687L1923 97.448ZM3 30.739L2.65843 28.2624L0.5 28.5601L0.5 30.739H3ZM2.68937 879.538C299.903 916.756 708.783 952.221 1078.97 969.148C1264.06 977.612 1439.5 981.443 1586.5 978.539C1733.42 975.636 1852.13 966.004 1923.63 947.459L1922.37 942.619C1851.5 961.002 1733.31 970.637 1586.4 973.54C1439.55 976.441 1264.22 972.614 1079.19 964.153C709.135 947.231 300.386 911.778 3.31063 874.577L2.68937 879.538ZM1925.5 945.039V97.448H1920.5V945.039H1925.5ZM1923.32 94.9687C1424.7 30.3804 494.787 -39.6128 2.65843 28.2624L3.34157 33.2155C494.751 -34.5605 1424.09 35.3423 1922.68 99.9272L1923.32 94.9687ZM0.5 30.739V877.058H5.5V30.739H0.5Z" fill="#80B0E0"/>
</svg>
