<svg width="20" height="20" viewBox="0 0 20 20" fill="none" xmlns="http://www.w3.org/2000/svg">
<g clip-path="url(#clip0)">
<path d="M12.9108 6.92306L16.2295 3.29669C16.3187 3.20263 16.3445 3.06503 16.2954 2.94505C16.2379 2.82676 16.1192 2.75045 15.9877 2.74725H5.32836C5.32836 2.74725 5.19648 2.74725 5.19648 2.76921V2.37361C5.75989 2.28384 6.16092 1.77781 6.11957 1.20877C6.11969 0.549701 5.59179 0.011997 4.93276 7.87752e-06C4.25771 -0.000412795 3.70368 0.534136 3.68 1.20881C3.70255 1.73516 4.04132 2.19554 4.53712 2.37365V19.6703C4.53712 19.8524 4.68474 20 4.8668 20C5.04887 20 5.19648 19.8524 5.19648 19.6703V11.0989H15.9877C16.1225 11.1077 16.2474 11.0275 16.2953 10.9011C16.3391 10.7806 16.3138 10.6459 16.2294 10.5495L12.9108 6.92306Z" fill="#FF0054"/>
</g>
<defs>
<clipPath id="clip0">
<rect width="20" height="20" fill="white"/>
</clipPath>
</defs>
</svg>
