<svg width="839" height="491" viewBox="0 0 839 491" fill="none" xmlns="http://www.w3.org/2000/svg">
<path d="M442.478 32.9776L704.626 72.1604C710.088 72.9768 713.855 78.0666 713.038 83.5288L653.626 481.11C652.81 486.572 647.721 490.338 642.258 489.522L380.111 450.339L442.478 32.9776Z" fill="#6DCA5E"/>
<rect width="58.248" height="421.996" transform="matrix(0.989013 0.147826 -0.147793 0.989018 442.478 32.9776)" fill="black" fill-opacity="0.2"/>
<rect width="29.124" height="242.564" rx="1" transform="matrix(0.989013 0.147826 -0.147793 0.989018 431.217 195.92)" fill="white" fill-opacity="0.4"/>
<rect width="129.44" height="89.7156" rx="2" transform="matrix(0.989013 0.147826 -0.147793 0.989018 540.49 121.541)" fill="white" fill-opacity="0.4"/>
<rect width="29.124" height="13.2912" rx="1" transform="matrix(0.989013 0.147826 -0.147793 0.989018 453.316 48.0363)" fill="white" fill-opacity="0.4"/>
<rect width="29.124" height="13.2912" rx="1" transform="matrix(0.989013 0.147826 -0.147793 0.989018 449.878 71.0404)" fill="white" fill-opacity="0.4"/>
<path d="M0 420.052C0 416.739 2.68629 414.052 6 414.052H505.598V487.336H5.99999C2.68628 487.336 0 484.65 0 481.336V420.052Z" fill="#0E3C81"/>
<path d="M0 420.052C0 416.739 2.68629 414.052 6 414.052H318.34V487.336H5.99999C2.68628 487.336 0 484.65 0 481.336V420.052Z" fill="white" fill-opacity="0.1"/>
<rect x="18.7258" y="428.709" width="183.513" height="43.9701" rx="2" fill="white" fill-opacity="0.5"/>
<rect x="292.124" y="428.709" width="14.9807" height="43.9701" rx="2" fill="white" fill-opacity="0.5"/>
<rect x="269.652" y="428.709" width="14.9807" height="43.9701" rx="2" fill="white" fill-opacity="0.5"/>
<rect x="453.166" y="414.052" width="108.61" height="7.32836" fill="#0E3C81"/>
<rect x="453.166" y="480.007" width="108.61" height="7.32836" fill="#0E3C81"/>
<path d="M549.563 480.007C535.756 456.578 535.307 443.787 549.563 421.381H331.57C323.312 443.267 322.962 456.164 331.57 480.007H549.563Z" fill="#E4E4E4"/>
<path d="M51.2925 339.44C51.2925 336.127 53.9788 333.44 57.2925 333.44H440.383V414.052H57.2925C53.9788 414.052 51.2925 411.366 51.2925 408.052V339.44Z" fill="#AF3F9D"/>
<path d="M51.2925 339.44C51.2925 336.127 53.9788 333.44 57.2925 333.44H296.276V414.052H57.2925C53.9788 414.052 51.2925 411.366 51.2925 408.052V339.44Z" fill="white" fill-opacity="0.1"/>
<rect x="65.7034" y="349.563" width="141.226" height="48.3672" rx="2" fill="white" fill-opacity="0.5"/>
<rect x="276.101" y="349.563" width="11.5286" height="48.3672" rx="2" fill="white" fill-opacity="0.5"/>
<rect x="258.808" y="349.563" width="11.5286" height="48.3672" rx="2" fill="white" fill-opacity="0.5"/>
<rect x="400.033" y="333.44" width="83.5825" height="8.06119" fill="#AF3F9D"/>
<rect x="400.033" y="405.991" width="83.5825" height="8.0612" fill="#AF3F9D"/>
<path d="M474.217 405.991C463.591 380.219 463.246 366.149 474.217 341.502H306.457C300.102 365.576 299.833 379.764 306.457 405.991H474.217Z" fill="#E4E4E4"/>
<path d="M527.581 25.6493H829C834.523 25.6493 839 30.1264 839 35.6493V481C839 486.523 834.523 491 829 491H527.581V25.6493Z" fill="#F54040"/>
<rect x="527.581" y="25.6493" width="65.9476" height="465.351" fill="black" fill-opacity="0.2"/>
<rect x="542.236" y="205.194" width="32.9738" height="267.485" rx="1" fill="white" fill-opacity="0.4"/>
<rect x="652.148" y="106.261" width="146.55" height="98.9328" rx="2" fill="white" fill-opacity="0.4"/>
<rect x="542.236" y="40.306" width="32.9738" height="14.6567" rx="1" fill="white" fill-opacity="0.4"/>
<rect x="542.236" y="65.9552" width="32.9738" height="14.6567" rx="1" fill="white" fill-opacity="0.4"/>
<path d="M232.648 216.187C245.838 216.187 294.322 251.607 316.915 269.317L364.544 293.134L362.712 326.112C340.729 327.333 303.359 334.54 293.1 331.608C282.842 328.677 248.525 283.974 232.648 261.989C227.153 266.264 213.963 277.012 205.17 285.806C196.377 294.6 175.86 307.791 166.701 313.287L142.886 331.608L119.072 318.784C130.063 308.402 151.679 304.86 157.541 300.463C164.869 294.966 216.162 216.187 232.648 216.187Z" fill="#FFDD9B"/>
<path d="M113.149 333.44C103.989 333.44 100.325 331.608 103.989 326.112L118.644 316.951C122.308 318.784 120.842 322.448 136.963 322.448C153.083 322.448 161.999 316.341 166.273 311.455L169.937 326.112L166.273 333.44H151.618V329.776C141.848 330.997 120.476 333.44 113.149 333.44Z" fill="#FF7979"/>
<path d="M302.241 153.995L293.365 152.187L304.016 107.004C305.791 94.3523 295.14 65.435 293.365 50.9763C291.59 36.5176 298.691 13.0223 316.442 3.98563C334.194 -5.05105 359.047 2.17829 375.023 16.637C391 31.0957 396.325 50.9764 410.527 79.8938L433.604 134.114C426.503 142.789 401.059 150.982 389.224 153.995L325.318 161.224L307.566 157.609V144.958L302.241 153.995Z" fill="#333459"/>
<path d="M357.216 333.44C335.234 345.166 286.994 338.326 265.622 333.44H236.312L245.472 271.149L249.135 265.653L245.472 261.989L256.463 212.522C266.233 222.294 287.971 243.302 296.764 249.164C305.557 255.027 311.419 246.721 313.251 241.836L379.199 285.806C381.031 296.799 379.199 321.715 357.216 333.44Z" fill="#FFB8B8"/>
<path d="M328.869 23.8662C360.112 20.9745 369.106 46.7592 369.698 60.013C370.289 57.0008 369.698 52.7837 375.023 52.7837C380.349 52.7837 380.94 60.6155 382.124 63.6277C382.124 66.0375 381.414 71.58 378.573 74.4717C375.733 77.3635 372.656 79.2913 371.473 79.8937C370.881 86.5206 369.698 91.6045 366.376 100.765C365.982 101.851 367.366 112.254 366.376 113.59C362.56 118.736 343.085 126.485 338.898 128.246C337.555 128.811 337.464 124.773 337.317 121.078L336.071 115.422C333.057 116.288 330.531 116.605 328.869 116.04C323.543 114.233 320.527 112.97 312.892 105.196C305.791 97.9671 302.241 90.7377 302.241 78.0864C302.241 65.435 295.14 67.2424 298.691 43.747C301.407 25.7725 321.367 23.8662 328.869 23.8662Z" fill="#FFDD9B"/>
<path d="M379.473 293.134L304.092 245.038L311.271 232.568V209.41C311.271 169.203 323.834 154.188 327.424 139.938C331.014 125.687 351.943 118.984 362.712 115.422C373.481 111.859 379.521 118.69 388.447 130.078C402.805 148.399 408.189 166.658 409.984 196.941C411.779 227.224 406.395 264.633 402.805 275.321C399.933 283.871 392.036 283.634 388.447 282.446L379.473 293.134Z" fill="#FFF972"/>
<path d="M210.666 142.903L208.834 179.545L245.472 208.858L272.95 196.034L210.666 142.903Z" fill="#57E1FF"/>
<path d="M214.277 139.239L212.498 175.881L248.089 205.194L274.782 192.369L214.277 139.239Z" fill="#F4ECEC"/>
<path d="M245.472 208.858L210.666 179.545L223.489 161.224L269.286 201.53C266.233 201.53 260.127 201.53 254.631 203.362C251.85 204.289 247.914 206.415 245.472 208.858Z" fill="#50CCE8"/>
<path d="M276.875 208.858C280.225 208.858 307.581 217.233 320.84 221.421L333.402 248.641C329.913 250.037 320.422 252.828 310.372 252.828C297.811 252.828 266.407 231.89 266.407 229.796V225.609L260.127 221.421L268.501 208.858L272.688 210.952C272.688 210.254 273.526 208.858 276.875 208.858Z" fill="#FFF972"/>
<path d="M258.295 216.187L261.959 219.851L267.454 210.69L265.622 208.858L269.286 205.194V201.53H265.622L260.127 205.194L254.631 199.698L245.472 197.866L239.976 203.362C241.197 205.194 244.373 209.591 247.304 212.522C250.235 215.454 255.852 216.187 258.295 216.187Z" fill="#FFDD9B"/>
</svg>
