<svg width="74" height="74" viewBox="0 0 74 74" fill="none" xmlns="http://www.w3.org/2000/svg">
<path fill-rule="evenodd" clip-rule="evenodd" d="M50 26.6666C50 30.2028 48.5952 33.5942 46.0948 36.0947C43.5943 38.5952 40.2029 39.9999 36.6667 39.9999C33.1304 39.9999 29.7391 38.5952 27.2386 36.0947C24.7381 33.5942 23.3333 30.2028 23.3333 26.6666C23.3333 23.1304 24.7381 19.739 27.2386 17.2385C29.7391 14.738 33.1304 13.3333 36.6667 13.3333C40.2029 13.3333 43.5943 14.738 46.0948 17.2385C48.5952 19.739 50 23.1304 50 26.6666V26.6666ZM43.3333 26.6666C43.3333 28.4347 42.631 30.1304 41.3807 31.3806C40.1305 32.6309 38.4348 33.3333 36.6667 33.3333C34.8986 33.3333 33.2029 32.6309 31.9526 31.3806C30.7024 30.1304 30 28.4347 30 26.6666C30 24.8985 30.7024 23.2028 31.9526 21.9525C33.2029 20.7023 34.8986 19.9999 36.6667 19.9999C38.4348 19.9999 40.1305 20.7023 41.3807 21.9525C42.631 23.2028 43.3333 24.8985 43.3333 26.6666V26.6666Z" fill="#5E5E5E"/>
<path fill-rule="evenodd" clip-rule="evenodd" d="M36.6667 0C16.4167 0 0 16.4167 0 36.6667C0 56.9167 16.4167 73.3333 36.6667 73.3333C56.9167 73.3333 73.3333 56.9167 73.3333 36.6667C73.3333 16.4167 56.9167 0 36.6667 0ZM6.66667 36.6667C6.66667 43.6333 9.04333 50.0467 13.0267 55.14C15.8241 51.4663 19.433 48.4892 23.5714 46.441C27.7099 44.3929 32.2658 43.3293 36.8833 43.3333C41.4411 43.329 45.9397 44.3651 50.0364 46.3626C54.1332 48.3601 57.7199 51.2664 60.5233 54.86C63.4115 51.072 65.3561 46.6507 66.1963 41.962C67.0365 37.2732 66.7481 32.4518 65.355 27.8966C63.9619 23.3414 61.5041 19.1835 58.1849 15.7668C54.8658 12.3501 50.7808 9.77286 46.2679 8.24836C41.755 6.72386 36.944 6.2959 32.2329 6.99991C27.5217 7.70391 23.046 9.51964 19.1759 12.2968C15.3058 15.0741 12.1527 18.7329 9.97743 22.9707C7.80216 27.2084 6.66727 31.9032 6.66667 36.6667V36.6667ZM36.6667 66.6667C29.7798 66.677 23.1009 64.3078 17.76 59.96C19.9098 56.8824 22.7711 54.3697 26.1006 52.6356C29.4302 50.9015 33.1293 49.9973 36.8833 50C40.5905 49.997 44.245 50.8786 47.5431 52.5714C50.8412 54.2642 53.6879 56.7195 55.8467 59.7333C50.4643 64.2223 43.6753 66.6765 36.6667 66.6667V66.6667Z" fill="#5E5E5E"/>
</svg>
