<svg width="24" height="24" viewBox="0 0 24 24" fill="none" xmlns="http://www.w3.org/2000/svg">
<g clip-path="url(#clip0)">
<path d="M23.5898 8.75756L22.416 7.58377C21.8677 7.03542 20.9755 7.03552 20.4272 7.58377L17.9548 10.0562V2.10938C17.9548 0.946266 17.0085 0 15.8454 0H2.11102C0.947914 0 0.00164795 0.946266 0.00164795 2.10938V21.8906C0.00164795 23.0537 0.947914 24 2.11102 24H15.8454C17.0085 24 17.9548 23.0537 17.9548 21.8906V16.311L23.5898 10.7463C24.1381 10.198 24.1381 9.30586 23.5898 8.75756ZM15.1804 17.0743L13.0653 18.0614L14.0514 15.9483L19.3003 10.6995L20.4608 11.8599L15.1804 17.0743ZM16.5485 21.8906C16.5485 22.2783 16.2331 22.5938 15.8454 22.5938H2.11102C1.72332 22.5938 1.4079 22.2783 1.4079 21.8906V2.10938C1.4079 1.72167 1.72332 1.40625 2.11102 1.40625H15.8454C16.2331 1.40625 16.5485 1.72167 16.5485 2.10938V11.4624C12.6495 15.3615 12.9041 15.0813 12.8295 15.2413L10.9733 19.2188C10.8483 19.4868 10.9042 19.8043 11.1133 20.0134C11.3223 20.2225 11.64 20.2784 11.9078 20.1533L15.8853 18.2971C16.0312 18.2291 16.0552 18.1868 16.5485 17.6996V21.8906ZM21.4613 10.8719L20.2946 9.70514L21.4216 8.57812L22.595 9.7523L21.4613 10.8719Z" fill="#FD7D00"/>
<path d="M3.75037 5.95312H14.2504C14.6387 5.95312 14.9535 5.63831 14.9535 5.25C14.9535 4.86169 14.6387 4.54688 14.2504 4.54688H3.75037C3.36205 4.54688 3.04724 4.86169 3.04724 5.25C3.04724 5.63831 3.36205 5.95312 3.75037 5.95312Z" fill="#FD7D00"/>
<path d="M3.75037 9.70312H12.0004C12.3887 9.70312 12.7035 9.38831 12.7035 9C12.7035 8.61169 12.3887 8.29688 12.0004 8.29688H3.75037C3.36205 8.29688 3.04724 8.61169 3.04724 9C3.04724 9.38831 3.36205 9.70312 3.75037 9.70312Z" fill="#FD7D00"/>
<path d="M9.75037 12.0469H3.75037C3.36205 12.0469 3.04724 12.3617 3.04724 12.75C3.04724 13.1383 3.36205 13.4531 3.75037 13.4531H9.75037C10.1387 13.4531 10.4535 13.1383 10.4535 12.75C10.4535 12.3617 10.1387 12.0469 9.75037 12.0469Z" fill="#FD7D00"/>
</g>
<defs>
<clipPath id="clip0">
<rect width="24" height="24" fill="white"/>
</clipPath>
</defs>
</svg>
